%TF.GenerationSoftware,KiCad,Pcbnew,(6.0.5)*%
%TF.CreationDate,2022-06-17T13:24:51+08:00*%
%TF.ProjectId,JLINK_MINI_ADAPTER,4a4c494e-4b5f-44d4-994e-495f41444150,rev?*%
%TF.SameCoordinates,PX853a720PY66f2fb0*%
%TF.FileFunction,Copper,L2,Bot*%
%TF.FilePolarity,Positive*%
%FSLAX46Y46*%
G04 Gerber Fmt 4.6, Leading zero omitted, Abs format (unit mm)*
G04 Created by KiCad (PCBNEW (6.0.5)) date 2022-06-17 13:24:51*
%MOMM*%
%LPD*%
G01*
G04 APERTURE LIST*
G04 Aperture macros list*
%AMRoundRect*
0 Rectangle with rounded corners*
0 $1 Rounding radius*
0 $2 $3 $4 $5 $6 $7 $8 $9 X,Y pos of 4 corners*
0 Add a 4 corners polygon primitive as box body*
4,1,4,$2,$3,$4,$5,$6,$7,$8,$9,$2,$3,0*
0 Add four circle primitives for the rounded corners*
1,1,$1+$1,$2,$3*
1,1,$1+$1,$4,$5*
1,1,$1+$1,$6,$7*
1,1,$1+$1,$8,$9*
0 Add four rect primitives between the rounded corners*
20,1,$1+$1,$2,$3,$4,$5,0*
20,1,$1+$1,$4,$5,$6,$7,0*
20,1,$1+$1,$6,$7,$8,$9,0*
20,1,$1+$1,$8,$9,$2,$3,0*%
G04 Aperture macros list end*
%TA.AperFunction,SMDPad,CuDef*%
%ADD10R,2.100000X0.750000*%
%TD*%
%TA.AperFunction,SMDPad,CuDef*%
%ADD11RoundRect,0.312500X-1.437500X-0.312500X1.437500X-0.312500X1.437500X0.312500X-1.437500X0.312500X0*%
%TD*%
%TA.AperFunction,ViaPad*%
%ADD12C,0.508000*%
%TD*%
%TA.AperFunction,Conductor*%
%ADD13C,0.508000*%
%TD*%
%TA.AperFunction,Conductor*%
%ADD14C,0.254000*%
%TD*%
G04 APERTURE END LIST*
D10*
%TO.P,J1,1,Pin_1*%
%TO.N,/VTref*%
X5229000Y10160000D03*
%TO.P,J1,2,Pin_2*%
%TO.N,/SWDIO{slash}TMS*%
X1629000Y10160000D03*
%TO.P,J1,3,Pin_3*%
%TO.N,/GND*%
X5229000Y11430000D03*
%TO.P,J1,4,Pin_4*%
%TO.N,/SWCLK{slash}TCK*%
X1629000Y11430000D03*
%TO.P,J1,5,Pin_5*%
%TO.N,/GND*%
X5229000Y12700000D03*
%TO.P,J1,6,Pin_6*%
%TO.N,/SWO{slash}TDO*%
X1629000Y12700000D03*
%TO.P,J1,7,Pin_7*%
%TO.N,unconnected-(J1-Pad7)*%
X5229000Y13970000D03*
%TO.P,J1,8,Pin_8*%
%TO.N,/TDI*%
X1629000Y13970000D03*
%TO.P,J1,9,Pin_9*%
%TO.N,unconnected-(J1-Pad9)*%
X5229000Y15240000D03*
%TO.P,J1,10,Pin_10*%
%TO.N,/nRESET*%
X1629000Y15240000D03*
%TD*%
D11*
%TO.P,J2,1,Pin_1*%
%TO.N,/VTref*%
X8890000Y1270000D03*
%TO.P,J2,3,Pin_3*%
%TO.N,unconnected-(J2-Pad3)*%
X8890000Y3810000D03*
%TO.P,J2,5,Pin_5*%
%TO.N,/TDI*%
X8890000Y6350000D03*
%TO.P,J2,7,Pin_7*%
%TO.N,/SWDIO{slash}TMS*%
X8890000Y8890000D03*
%TO.P,J2,9,Pin_9*%
%TO.N,/SWCLK{slash}TCK*%
X8890000Y11430000D03*
%TO.P,J2,11,Pin_11*%
%TO.N,unconnected-(J2-Pad11)*%
X8890000Y13970000D03*
%TO.P,J2,13,Pin_13*%
%TO.N,/SWO{slash}TDO*%
X8890000Y16510000D03*
%TO.P,J2,15,Pin_15*%
%TO.N,/nRESET*%
X8890000Y19050000D03*
%TO.P,J2,17,Pin_17*%
%TO.N,unconnected-(J2-Pad17)*%
X8890000Y21590000D03*
%TO.P,J2,19,Pin_19*%
%TO.N,unconnected-(J2-Pad19)*%
X8890000Y24130000D03*
%TD*%
D12*
%TO.N,/SWDIO{slash}TMS*%
X3429000Y10160000D03*
X6350000Y8890000D03*
%TO.N,/GND*%
X6223000Y16510000D03*
X889000Y16510000D03*
X8890000Y20320000D03*
X4826000Y19050000D03*
X4064000Y24130000D03*
X8890000Y2540000D03*
X4064000Y21590000D03*
X4191000Y4064000D03*
X6350000Y7620000D03*
X2794000Y17272000D03*
X8890000Y15240000D03*
X8890000Y17780000D03*
X6223000Y21590000D03*
X889000Y21590000D03*
X5334000Y889000D03*
X8890000Y7620000D03*
X1016000Y4318000D03*
X1016000Y8636000D03*
X6350000Y3810000D03*
X1016000Y6604000D03*
X5334000Y12065000D03*
X8890000Y5080000D03*
X8890000Y12700000D03*
X8890000Y22860000D03*
X3810000Y889000D03*
X2921000Y6223000D03*
X889000Y19050000D03*
X6223000Y24130000D03*
X8890000Y10160000D03*
%TO.N,/SWCLK{slash}TCK*%
X7239000Y10160000D03*
X3429000Y11430000D03*
%TO.N,/SWO{slash}TDO*%
X3429000Y12700000D03*
X7239000Y15240000D03*
%TO.N,/TDI*%
X3429000Y13970000D03*
X6350000Y6350000D03*
%TD*%
D13*
%TO.N,/VTref*%
X8890000Y1270000D02*
X7449420Y1270000D01*
X5379000Y3815596D02*
X5379000Y10160000D01*
X5378999Y3815596D02*
G75*
G03*
X6223000Y1778000I2881601J4D01*
G01*
X6222994Y1777994D02*
G75*
G03*
X7449420Y1270000I1226406J1226406D01*
G01*
%TO.N,/SWDIO{slash}TMS*%
X1479000Y10160000D02*
X3429000Y10160000D01*
X8890000Y8890000D02*
X6350000Y8890000D01*
D14*
%TO.N,/GND*%
X5379000Y11430000D02*
X6236290Y11430000D01*
D13*
%TO.N,/SWCLK{slash}TCK*%
X8239593Y11160592D02*
X7239000Y10160000D01*
X1479000Y11430000D02*
X3429000Y11430000D01*
X8239596Y11160589D02*
G75*
G02*
X8890000Y11430000I650404J-650389D01*
G01*
%TO.N,/SWO{slash}TDO*%
X8239593Y16240592D02*
X7239000Y15240000D01*
X1479000Y12700000D02*
X3429000Y12700000D01*
X8239596Y16240589D02*
G75*
G02*
X8890000Y16510000I650404J-650389D01*
G01*
%TO.N,/TDI*%
X1479000Y13970000D02*
X3429000Y13970000D01*
X8890000Y6350000D02*
X6350000Y6350000D01*
%TO.N,/nRESET*%
X1821580Y15240000D02*
X1479000Y15240000D01*
X4553949Y17253949D02*
X3048000Y15748000D01*
X4553950Y17253948D02*
G75*
G02*
X8890000Y19050000I4336050J-4336048D01*
G01*
X1821580Y15240009D02*
G75*
G03*
X3048000Y15748000I20J1734391D01*
G01*
%TD*%
%TA.AperFunction,Conductor*%
%TO.N,/SWCLK{slash}TCK*%
G36*
X1647490Y11759754D02*
G01*
X1691024Y11740163D01*
X1691211Y11740079D01*
X1717296Y11730331D01*
X1739232Y11722134D01*
X1739238Y11722132D01*
X1739436Y11722058D01*
X1786463Y11708352D01*
X1833804Y11698376D01*
X1882968Y11691541D01*
X1935465Y11687264D01*
X1945748Y11686850D01*
X1992749Y11684959D01*
X1992768Y11684959D01*
X1992806Y11684957D01*
X1992863Y11684956D01*
X1992870Y11684956D01*
X2006823Y11684754D01*
X2056502Y11684035D01*
X2128063Y11683911D01*
X2197287Y11683987D01*
X2205564Y11680569D01*
X2209000Y11672287D01*
X2209000Y11187713D01*
X2205573Y11179440D01*
X2197287Y11176013D01*
X2128063Y11176090D01*
X2056502Y11175966D01*
X2006823Y11175247D01*
X1992870Y11175045D01*
X1992863Y11175045D01*
X1992806Y11175044D01*
X1992768Y11175042D01*
X1992749Y11175042D01*
X1945748Y11173151D01*
X1935465Y11172737D01*
X1882968Y11168460D01*
X1833804Y11161625D01*
X1786463Y11151649D01*
X1739436Y11137943D01*
X1739238Y11137869D01*
X1739232Y11137867D01*
X1717296Y11129670D01*
X1691211Y11119922D01*
X1668839Y11109853D01*
X1647491Y11100246D01*
X1638540Y11099975D01*
X1634579Y11102482D01*
X1302769Y11421567D01*
X1299181Y11429771D01*
X1302769Y11438433D01*
X1634579Y11757518D01*
X1642918Y11760783D01*
X1647490Y11759754D01*
G37*
%TD.AperFunction*%
%TD*%
%TA.AperFunction,Conductor*%
%TO.N,/SWCLK{slash}TCK*%
G36*
X8453270Y11866118D02*
G01*
X9173558Y11539169D01*
X9179675Y11532629D01*
X9179179Y11523266D01*
X8824265Y10816180D01*
X8817491Y10810324D01*
X8812463Y10809807D01*
X8810519Y10810032D01*
X8795216Y10811803D01*
X8725721Y10819845D01*
X8725684Y10819849D01*
X8639512Y10829149D01*
X8639497Y10829150D01*
X8639352Y10829166D01*
X8639215Y10829176D01*
X8639190Y10829178D01*
X8576907Y10833609D01*
X8559721Y10834832D01*
X8530719Y10834837D01*
X8485380Y10834845D01*
X8485062Y10834845D01*
X8445692Y10830638D01*
X8414008Y10827252D01*
X8414003Y10827251D01*
X8413609Y10827209D01*
X8372041Y10816949D01*
X8344014Y10810032D01*
X8344010Y10810031D01*
X8343594Y10809928D01*
X8273253Y10781002D01*
X8272905Y10780797D01*
X8272896Y10780793D01*
X8225512Y10752948D01*
X8200819Y10738437D01*
X8124525Y10680234D01*
X8050866Y10612042D01*
X8042469Y10608938D01*
X8034647Y10612356D01*
X7691531Y10955473D01*
X7688104Y10963746D01*
X7691392Y10971878D01*
X7797036Y11081165D01*
X7797045Y11081174D01*
X7797114Y11081246D01*
X7890183Y11184975D01*
X7967223Y11277757D01*
X8032853Y11362554D01*
X8091691Y11442328D01*
X8148334Y11520010D01*
X8148437Y11520148D01*
X8207346Y11598494D01*
X8207571Y11598785D01*
X8273502Y11680958D01*
X8273809Y11681325D01*
X8351367Y11770284D01*
X8351705Y11770654D01*
X8439953Y11863523D01*
X8448136Y11867160D01*
X8453270Y11866118D01*
G37*
%TD.AperFunction*%
%TD*%
%TA.AperFunction,Conductor*%
%TO.N,/SWDIO{slash}TMS*%
G36*
X1647490Y10489754D02*
G01*
X1691024Y10470163D01*
X1691211Y10470079D01*
X1717296Y10460331D01*
X1739232Y10452134D01*
X1739238Y10452132D01*
X1739436Y10452058D01*
X1786463Y10438352D01*
X1833804Y10428376D01*
X1882968Y10421541D01*
X1935465Y10417264D01*
X1945748Y10416850D01*
X1992749Y10414959D01*
X1992768Y10414959D01*
X1992806Y10414957D01*
X1992863Y10414956D01*
X1992870Y10414956D01*
X2006823Y10414754D01*
X2056502Y10414035D01*
X2128063Y10413911D01*
X2197287Y10413987D01*
X2205564Y10410569D01*
X2209000Y10402287D01*
X2209000Y9917713D01*
X2205573Y9909440D01*
X2197287Y9906013D01*
X2128063Y9906090D01*
X2056502Y9905966D01*
X2006823Y9905247D01*
X1992870Y9905045D01*
X1992863Y9905045D01*
X1992806Y9905044D01*
X1992768Y9905042D01*
X1992749Y9905042D01*
X1945748Y9903151D01*
X1935465Y9902737D01*
X1882968Y9898460D01*
X1833804Y9891625D01*
X1786463Y9881649D01*
X1739436Y9867943D01*
X1739238Y9867869D01*
X1739232Y9867867D01*
X1717296Y9859670D01*
X1691211Y9849922D01*
X1668839Y9839853D01*
X1647491Y9830246D01*
X1638540Y9829975D01*
X1634579Y9832482D01*
X1302769Y10151567D01*
X1299181Y10159771D01*
X1302769Y10168433D01*
X1634579Y10487518D01*
X1642918Y10490783D01*
X1647490Y10489754D01*
G37*
%TD.AperFunction*%
%TD*%
%TA.AperFunction,Conductor*%
%TO.N,/GND*%
G36*
X3814660Y9420300D02*
G01*
X3815739Y9421739D01*
X3932295Y9334385D01*
X4068684Y9283255D01*
X4130866Y9276500D01*
X4490500Y9276500D01*
X4558621Y9256498D01*
X4605114Y9202842D01*
X4616500Y9150500D01*
X4616500Y3878037D01*
X4615274Y3860501D01*
X4611974Y3837020D01*
X4611675Y3815595D01*
X4612115Y3811671D01*
X4612166Y3810627D01*
X4612631Y3804854D01*
X4613992Y3777160D01*
X4629673Y3457980D01*
X4682210Y3103810D01*
X4682960Y3100816D01*
X4759485Y2795312D01*
X4769208Y2756494D01*
X4770245Y2753595D01*
X4770248Y2753586D01*
X4795717Y2682407D01*
X4889830Y2419379D01*
X4891146Y2416596D01*
X4891150Y2416587D01*
X4977672Y2233653D01*
X5042915Y2095709D01*
X5044498Y2093068D01*
X5225398Y1791253D01*
X5225404Y1791244D01*
X5226987Y1788603D01*
X5228830Y1786118D01*
X5339140Y1637383D01*
X5440275Y1501018D01*
X5613249Y1310171D01*
X5653773Y1265460D01*
X5661039Y1256675D01*
X5665481Y1250780D01*
X5680419Y1235419D01*
X5683514Y1232948D01*
X5683523Y1232940D01*
X5690087Y1227700D01*
X5695433Y1223183D01*
X5890159Y1049167D01*
X6118883Y886879D01*
X6121975Y885170D01*
X6121980Y885167D01*
X6302756Y785257D01*
X6364340Y751221D01*
X6367601Y749870D01*
X6370795Y748332D01*
X6370096Y746881D01*
X6420382Y706349D01*
X6442795Y638983D01*
X6425230Y570194D01*
X6373262Y521821D01*
X6316875Y508500D01*
X2589367Y508500D01*
X2569982Y510000D01*
X2555149Y512310D01*
X2555145Y512310D01*
X2546276Y513691D01*
X2537374Y512527D01*
X2537371Y512527D01*
X2529988Y511561D01*
X2505409Y510767D01*
X2460799Y513691D01*
X2283078Y525340D01*
X2266738Y527491D01*
X2144522Y551801D01*
X2022304Y576112D01*
X2006394Y580375D01*
X1770398Y660485D01*
X1755174Y666791D01*
X1531658Y777016D01*
X1517384Y785257D01*
X1310171Y923713D01*
X1297095Y933746D01*
X1109722Y1098068D01*
X1098068Y1109722D01*
X933746Y1297095D01*
X923713Y1310171D01*
X785257Y1517384D01*
X777016Y1531658D01*
X666791Y1755174D01*
X660484Y1770400D01*
X580375Y2006394D01*
X576111Y2022307D01*
X573310Y2036392D01*
X527491Y2266738D01*
X525340Y2283078D01*
X511476Y2494593D01*
X512650Y2517768D01*
X512334Y2517796D01*
X512770Y2522656D01*
X513576Y2527448D01*
X513729Y2540000D01*
X1010786Y2540000D01*
X1029613Y2300778D01*
X1030767Y2295971D01*
X1030768Y2295965D01*
X1053999Y2199202D01*
X1085631Y2067447D01*
X1087524Y2062876D01*
X1087525Y2062874D01*
X1152790Y1905311D01*
X1177460Y1845751D01*
X1302840Y1641151D01*
X1458682Y1458682D01*
X1641151Y1302840D01*
X1845751Y1177460D01*
X1850321Y1175567D01*
X1850323Y1175566D01*
X2037421Y1098068D01*
X2067447Y1085631D01*
X2149037Y1066043D01*
X2295965Y1030768D01*
X2295971Y1030767D01*
X2300778Y1029613D01*
X2540000Y1010786D01*
X2779222Y1029613D01*
X2784029Y1030767D01*
X2784035Y1030768D01*
X2930963Y1066043D01*
X3012553Y1085631D01*
X3042579Y1098068D01*
X3229677Y1175566D01*
X3229679Y1175567D01*
X3234249Y1177460D01*
X3438849Y1302840D01*
X3621318Y1458682D01*
X3777160Y1641151D01*
X3902540Y1845751D01*
X3927211Y1905311D01*
X3992475Y2062874D01*
X3992476Y2062876D01*
X3994369Y2067447D01*
X4026001Y2199202D01*
X4049232Y2295965D01*
X4049233Y2295971D01*
X4050387Y2300778D01*
X4069214Y2540000D01*
X4050387Y2779222D01*
X4049233Y2784029D01*
X4049232Y2784035D01*
X3995524Y3007741D01*
X3994369Y3012553D01*
X3992475Y3017126D01*
X3904434Y3229677D01*
X3904433Y3229679D01*
X3902540Y3234249D01*
X3777160Y3438849D01*
X3621318Y3621318D01*
X3438849Y3777160D01*
X3234249Y3902540D01*
X3229679Y3904433D01*
X3229677Y3904434D01*
X3017126Y3992475D01*
X3017124Y3992476D01*
X3012553Y3994369D01*
X2930963Y4013957D01*
X2784035Y4049232D01*
X2784029Y4049233D01*
X2779222Y4050387D01*
X2540000Y4069214D01*
X2300778Y4050387D01*
X2295971Y4049233D01*
X2295965Y4049232D01*
X2149037Y4013957D01*
X2067447Y3994369D01*
X2062876Y3992476D01*
X2062874Y3992475D01*
X1850323Y3904434D01*
X1850321Y3904433D01*
X1845751Y3902540D01*
X1641151Y3777160D01*
X1458682Y3621318D01*
X1302840Y3438849D01*
X1177460Y3234249D01*
X1175567Y3229679D01*
X1175566Y3229677D01*
X1087525Y3017126D01*
X1085631Y3012553D01*
X1084476Y3007741D01*
X1030768Y2784035D01*
X1030767Y2784029D01*
X1029613Y2779222D01*
X1011274Y2546200D01*
X1010786Y2540000D01*
X513729Y2540000D01*
X509773Y2567624D01*
X508500Y2585486D01*
X508500Y9150500D01*
X528502Y9218621D01*
X582158Y9265114D01*
X634500Y9276500D01*
X2727134Y9276500D01*
X2789316Y9283255D01*
X2925705Y9334385D01*
X2976331Y9372327D01*
X3042835Y9397174D01*
X3051894Y9397500D01*
X3369659Y9397500D01*
X3386323Y9396393D01*
X3405948Y9393774D01*
X3405953Y9393774D01*
X3412930Y9392843D01*
X3419941Y9393481D01*
X3419945Y9393481D01*
X3458399Y9396981D01*
X3469819Y9397500D01*
X3473525Y9397500D01*
X3505506Y9401228D01*
X3508633Y9401552D01*
X3576273Y9407708D01*
X3576275Y9407708D01*
X3583292Y9408347D01*
X3589993Y9410524D01*
X3590917Y9410714D01*
X3596406Y9411595D01*
X3598337Y9412052D01*
X3605607Y9412899D01*
X3674505Y9437907D01*
X3678553Y9439299D01*
X3696767Y9445217D01*
X3767735Y9447244D01*
X3814660Y9420300D01*
G37*
%TD.AperFunction*%
%TA.AperFunction,Conductor*%
G36*
X6307323Y5586393D02*
G01*
X6326948Y5583774D01*
X6326953Y5583774D01*
X6333930Y5582843D01*
X6340941Y5583481D01*
X6340945Y5583481D01*
X6379399Y5586981D01*
X6390819Y5587500D01*
X6700515Y5587500D01*
X6768636Y5567498D01*
X6798987Y5540109D01*
X6868292Y5453292D01*
X7012240Y5338379D01*
X7178070Y5258214D01*
X7184931Y5256630D01*
X7352341Y5217980D01*
X7352344Y5217980D01*
X7357540Y5216780D01*
X7362396Y5216500D01*
X10414500Y5216500D01*
X10482621Y5196498D01*
X10529114Y5142842D01*
X10540500Y5090500D01*
X10540500Y5069500D01*
X10520498Y5001379D01*
X10466842Y4954886D01*
X10414500Y4943500D01*
X7362396Y4943500D01*
X7357540Y4943220D01*
X7352344Y4942020D01*
X7352341Y4942020D01*
X7184931Y4903370D01*
X7178070Y4901786D01*
X7012240Y4821621D01*
X6868292Y4706708D01*
X6753379Y4562760D01*
X6673214Y4396930D01*
X6631780Y4217460D01*
X6631500Y4212604D01*
X6631500Y3407396D01*
X6631780Y3402540D01*
X6632980Y3397344D01*
X6632980Y3397341D01*
X6646852Y3337255D01*
X6673214Y3223070D01*
X6676280Y3216728D01*
X6725117Y3115704D01*
X6753379Y3057240D01*
X6868292Y2913292D01*
X7012240Y2798379D01*
X7178070Y2718214D01*
X7184931Y2716630D01*
X7352341Y2677980D01*
X7352344Y2677980D01*
X7357540Y2676780D01*
X7362396Y2676500D01*
X10414500Y2676500D01*
X10482621Y2656498D01*
X10529114Y2602842D01*
X10540500Y2550500D01*
X10540500Y2529500D01*
X10520498Y2461379D01*
X10466842Y2414886D01*
X10414500Y2403500D01*
X7362396Y2403500D01*
X7357540Y2403220D01*
X7352344Y2402020D01*
X7352341Y2402020D01*
X7184931Y2363370D01*
X7178070Y2361786D01*
X7122842Y2335088D01*
X7028243Y2289357D01*
X7012240Y2281621D01*
X6991361Y2264953D01*
X6985807Y2260520D01*
X6920090Y2233653D01*
X6850280Y2246581D01*
X6825370Y2263180D01*
X6794720Y2289357D01*
X6782336Y2302339D01*
X6782333Y2302336D01*
X6777418Y2307390D01*
X6773104Y2312952D01*
X6767667Y2317418D01*
X6767663Y2317422D01*
X6753657Y2328926D01*
X6739684Y2342330D01*
X6608538Y2489083D01*
X6599730Y2500127D01*
X6470396Y2682407D01*
X6462879Y2694370D01*
X6457539Y2704032D01*
X6354779Y2889964D01*
X6348651Y2902687D01*
X6346078Y2908899D01*
X6263119Y3109179D01*
X6258460Y3122493D01*
X6196589Y3337255D01*
X6193445Y3351030D01*
X6156009Y3571357D01*
X6154427Y3585398D01*
X6152230Y3624531D01*
X6144022Y3770682D01*
X6144817Y3793535D01*
X6145367Y3797892D01*
X6145367Y3797893D01*
X6146250Y3804883D01*
X6144813Y3819544D01*
X6142101Y3847198D01*
X6141500Y3859493D01*
X6141500Y5461500D01*
X6161502Y5529621D01*
X6215158Y5576114D01*
X6267500Y5587500D01*
X6290659Y5587500D01*
X6307323Y5586393D01*
G37*
%TD.AperFunction*%
%TA.AperFunction,Conductor*%
G36*
X6307323Y8126393D02*
G01*
X6326948Y8123774D01*
X6326953Y8123774D01*
X6333930Y8122843D01*
X6340941Y8123481D01*
X6340945Y8123481D01*
X6379399Y8126981D01*
X6390819Y8127500D01*
X6700515Y8127500D01*
X6768636Y8107498D01*
X6798987Y8080109D01*
X6868292Y7993292D01*
X7012240Y7878379D01*
X7178070Y7798214D01*
X7184931Y7796630D01*
X7352341Y7757980D01*
X7352344Y7757980D01*
X7357540Y7756780D01*
X7362396Y7756500D01*
X10414500Y7756500D01*
X10482621Y7736498D01*
X10529114Y7682842D01*
X10540500Y7630500D01*
X10540500Y7609500D01*
X10520498Y7541379D01*
X10466842Y7494886D01*
X10414500Y7483500D01*
X7362396Y7483500D01*
X7357540Y7483220D01*
X7352344Y7482020D01*
X7352341Y7482020D01*
X7184931Y7443370D01*
X7178070Y7441786D01*
X7012240Y7361621D01*
X6868292Y7246708D01*
X6863899Y7241205D01*
X6798986Y7159891D01*
X6740855Y7119132D01*
X6700515Y7112500D01*
X6403150Y7112500D01*
X6388231Y7113386D01*
X6384903Y7113783D01*
X6355357Y7117306D01*
X6348354Y7116570D01*
X6348351Y7116570D01*
X6313164Y7112872D01*
X6308599Y7112500D01*
X6305475Y7112500D01*
X6301849Y7112077D01*
X6301845Y7112077D01*
X6282090Y7109774D01*
X6212112Y7121753D01*
X6159718Y7169664D01*
X6141500Y7234926D01*
X6141500Y8001500D01*
X6161502Y8069621D01*
X6215158Y8116114D01*
X6267500Y8127500D01*
X6290659Y8127500D01*
X6307323Y8126393D01*
G37*
%TD.AperFunction*%
%TA.AperFunction,Conductor*%
G36*
X10482621Y10276498D02*
G01*
X10529114Y10222842D01*
X10540500Y10170500D01*
X10540500Y10149500D01*
X10520498Y10081379D01*
X10466842Y10034886D01*
X10414500Y10023500D01*
X8492583Y10023500D01*
X8424462Y10043502D01*
X8377969Y10097158D01*
X8367865Y10167432D01*
X8397359Y10232012D01*
X8406984Y10241959D01*
X8429667Y10262959D01*
X8493243Y10294560D01*
X8515266Y10296500D01*
X10414500Y10296500D01*
X10482621Y10276498D01*
G37*
%TD.AperFunction*%
%TA.AperFunction,Conductor*%
G36*
X6971929Y12990559D02*
G01*
X7012240Y12958379D01*
X7018583Y12955313D01*
X7018584Y12955312D01*
X7098352Y12916751D01*
X7178070Y12878214D01*
X7184931Y12876630D01*
X7352341Y12837980D01*
X7352344Y12837980D01*
X7357540Y12836780D01*
X7362396Y12836500D01*
X10414500Y12836500D01*
X10482621Y12816498D01*
X10529114Y12762842D01*
X10540500Y12710500D01*
X10540500Y12689500D01*
X10520498Y12621379D01*
X10466842Y12574886D01*
X10414500Y12563500D01*
X7362396Y12563500D01*
X7357540Y12563220D01*
X7352344Y12562020D01*
X7352341Y12562020D01*
X7237684Y12535549D01*
X7178070Y12521786D01*
X7171727Y12518720D01*
X7171728Y12518720D01*
X7036958Y12453570D01*
X7012240Y12441621D01*
X6973143Y12410410D01*
X6907428Y12383544D01*
X6837618Y12396471D01*
X6811952Y12420588D01*
X6810486Y12418896D01*
X6781135Y12444329D01*
X6773452Y12446000D01*
X5501115Y12446000D01*
X5485876Y12441525D01*
X5484671Y12440135D01*
X5483000Y12432452D01*
X5483000Y11302000D01*
X5462998Y11233879D01*
X5409342Y11187386D01*
X5357000Y11176000D01*
X5101000Y11176000D01*
X5032879Y11196002D01*
X4986386Y11249658D01*
X4975000Y11302000D01*
X4975000Y12828000D01*
X4995002Y12896121D01*
X5048658Y12942614D01*
X5101000Y12954000D01*
X6768884Y12954000D01*
X6784122Y12958474D01*
X6798095Y12974600D01*
X6857821Y13012984D01*
X6928817Y13012984D01*
X6971929Y12990559D01*
G37*
%TD.AperFunction*%
%TA.AperFunction,Conductor*%
G36*
X10482621Y15356498D02*
G01*
X10529114Y15302842D01*
X10540500Y15250500D01*
X10540500Y15229500D01*
X10520498Y15161379D01*
X10466842Y15114886D01*
X10414500Y15103500D01*
X8492583Y15103500D01*
X8424462Y15123502D01*
X8377969Y15177158D01*
X8367865Y15247432D01*
X8397359Y15312012D01*
X8406984Y15321959D01*
X8429667Y15342959D01*
X8493243Y15374560D01*
X8515266Y15376500D01*
X10414500Y15376500D01*
X10482621Y15356498D01*
G37*
%TD.AperFunction*%
%TA.AperFunction,Conductor*%
G36*
X7171067Y17961599D02*
G01*
X7178070Y17958214D01*
X7184931Y17956630D01*
X7352341Y17917980D01*
X7352344Y17917980D01*
X7357540Y17916780D01*
X7362396Y17916500D01*
X10414500Y17916500D01*
X10482621Y17896498D01*
X10529114Y17842842D01*
X10540500Y17790500D01*
X10540500Y17769500D01*
X10520498Y17701379D01*
X10466842Y17654886D01*
X10414500Y17643500D01*
X7362396Y17643500D01*
X7357540Y17643220D01*
X7352344Y17642020D01*
X7352341Y17642020D01*
X7184931Y17603370D01*
X7178070Y17601786D01*
X7012240Y17521621D01*
X6868292Y17406708D01*
X6753379Y17262760D01*
X6673214Y17096930D01*
X6671630Y17090069D01*
X6650286Y16997616D01*
X6631780Y16917460D01*
X6631500Y16912604D01*
X6631500Y16207753D01*
X6611498Y16139632D01*
X6557842Y16093139D01*
X6487568Y16083035D01*
X6461271Y16089771D01*
X6396718Y16113971D01*
X6396712Y16113973D01*
X6389316Y16116745D01*
X6327134Y16123500D01*
X4806028Y16123500D01*
X4737907Y16143502D01*
X4691414Y16197158D01*
X4681310Y16267432D01*
X4710804Y16332012D01*
X4716933Y16338595D01*
X5053351Y16675013D01*
X5065213Y16685471D01*
X5088901Y16703846D01*
X5107422Y16726394D01*
X5119258Y16738943D01*
X5399090Y16997616D01*
X5406613Y17004041D01*
X5590795Y17149239D01*
X5729950Y17258940D01*
X5737939Y17264744D01*
X6080271Y17493483D01*
X6088707Y17498652D01*
X6447937Y17699831D01*
X6456742Y17704318D01*
X6830648Y17876691D01*
X6839785Y17880476D01*
X7072617Y17966372D01*
X7143450Y17971184D01*
X7171067Y17961599D01*
G37*
%TD.AperFunction*%
%TA.AperFunction,Conductor*%
G36*
X6625687Y24871498D02*
G01*
X6672180Y24817842D01*
X6682284Y24747568D01*
X6676412Y24723646D01*
X6676282Y24723276D01*
X6673214Y24716930D01*
X6631780Y24537460D01*
X6631500Y24532604D01*
X6631500Y23727396D01*
X6631780Y23722540D01*
X6673214Y23543070D01*
X6676280Y23536728D01*
X6745464Y23393614D01*
X6753379Y23377240D01*
X6868292Y23233292D01*
X7012240Y23118379D01*
X7178070Y23038214D01*
X7184931Y23036630D01*
X7352341Y22997980D01*
X7352344Y22997980D01*
X7357540Y22996780D01*
X7362396Y22996500D01*
X10414500Y22996500D01*
X10482621Y22976498D01*
X10529114Y22922842D01*
X10540500Y22870500D01*
X10540500Y22849500D01*
X10520498Y22781379D01*
X10466842Y22734886D01*
X10414500Y22723500D01*
X7362396Y22723500D01*
X7357540Y22723220D01*
X7352344Y22722020D01*
X7352341Y22722020D01*
X7184931Y22683370D01*
X7178070Y22681786D01*
X7012240Y22601621D01*
X6868292Y22486708D01*
X6753379Y22342760D01*
X6673214Y22176930D01*
X6631780Y21997460D01*
X6631500Y21992604D01*
X6631500Y21187396D01*
X6631780Y21182540D01*
X6673214Y21003070D01*
X6753379Y20837240D01*
X6868292Y20693292D01*
X7012240Y20578379D01*
X7178070Y20498214D01*
X7184931Y20496630D01*
X7352341Y20457980D01*
X7352344Y20457980D01*
X7357540Y20456780D01*
X7362396Y20456500D01*
X10414500Y20456500D01*
X10482621Y20436498D01*
X10529114Y20382842D01*
X10540500Y20330500D01*
X10540500Y20309500D01*
X10520498Y20241379D01*
X10466842Y20194886D01*
X10414500Y20183500D01*
X7362396Y20183500D01*
X7357540Y20183220D01*
X7352344Y20182020D01*
X7352341Y20182020D01*
X7184931Y20143370D01*
X7178070Y20141786D01*
X7012240Y20061621D01*
X6868292Y19946708D01*
X6753379Y19802760D01*
X6673214Y19636930D01*
X6671630Y19630069D01*
X6641502Y19499572D01*
X6606688Y19437697D01*
X6558522Y19408364D01*
X6481174Y19382620D01*
X6479047Y19381912D01*
X6476987Y19381059D01*
X6476977Y19381055D01*
X6026119Y19194303D01*
X6026114Y19194300D01*
X6024053Y19193447D01*
X5583662Y18973003D01*
X5160120Y18721704D01*
X4755585Y18440830D01*
X4372117Y18131812D01*
X4038416Y17821125D01*
X4032861Y17816469D01*
X4032897Y17816427D01*
X4029890Y17813850D01*
X4026729Y17811468D01*
X4011368Y17796530D01*
X4008903Y17793442D01*
X3988751Y17768198D01*
X3979374Y17757712D01*
X2548606Y16326944D01*
X2536737Y16316479D01*
X2513048Y16298104D01*
X2499931Y16282135D01*
X2484401Y16266304D01*
X2400394Y16194556D01*
X2384411Y16182944D01*
X2320047Y16143502D01*
X2317705Y16142067D01*
X2251871Y16123500D01*
X634500Y16123500D01*
X566379Y16143502D01*
X519886Y16197158D01*
X508500Y16249500D01*
X508500Y22806750D01*
X510246Y22827655D01*
X512770Y22842656D01*
X512770Y22842659D01*
X513576Y22847448D01*
X513729Y22860000D01*
X1010786Y22860000D01*
X1029613Y22620778D01*
X1030767Y22615971D01*
X1030768Y22615965D01*
X1060746Y22491101D01*
X1085631Y22387447D01*
X1087524Y22382876D01*
X1087525Y22382874D01*
X1172830Y22176930D01*
X1177460Y22165751D01*
X1302840Y21961151D01*
X1458682Y21778682D01*
X1641151Y21622840D01*
X1845751Y21497460D01*
X1850321Y21495567D01*
X1850323Y21495566D01*
X2062874Y21407525D01*
X2067447Y21405631D01*
X2149037Y21386043D01*
X2295965Y21350768D01*
X2295971Y21350767D01*
X2300778Y21349613D01*
X2540000Y21330786D01*
X2779222Y21349613D01*
X2784029Y21350767D01*
X2784035Y21350768D01*
X2930963Y21386043D01*
X3012553Y21405631D01*
X3017126Y21407525D01*
X3229677Y21495566D01*
X3229679Y21495567D01*
X3234249Y21497460D01*
X3438849Y21622840D01*
X3621318Y21778682D01*
X3777160Y21961151D01*
X3902540Y22165751D01*
X3907171Y22176930D01*
X3992475Y22382874D01*
X3992476Y22382876D01*
X3994369Y22387447D01*
X4019254Y22491101D01*
X4049232Y22615965D01*
X4049233Y22615971D01*
X4050387Y22620778D01*
X4069214Y22860000D01*
X4050387Y23099222D01*
X4049233Y23104029D01*
X4049232Y23104035D01*
X3995524Y23327741D01*
X3994369Y23332553D01*
X3992475Y23337126D01*
X3904434Y23549677D01*
X3904433Y23549679D01*
X3902540Y23554249D01*
X3777160Y23758849D01*
X3621318Y23941318D01*
X3438849Y24097160D01*
X3234249Y24222540D01*
X3229679Y24224433D01*
X3229677Y24224434D01*
X3017126Y24312475D01*
X3017124Y24312476D01*
X3012553Y24314369D01*
X2930963Y24333957D01*
X2784035Y24369232D01*
X2784029Y24369233D01*
X2779222Y24370387D01*
X2540000Y24389214D01*
X2300778Y24370387D01*
X2295971Y24369233D01*
X2295965Y24369232D01*
X2149037Y24333957D01*
X2067447Y24314369D01*
X2062876Y24312476D01*
X2062874Y24312475D01*
X1850323Y24224434D01*
X1850321Y24224433D01*
X1845751Y24222540D01*
X1641151Y24097160D01*
X1458682Y23941318D01*
X1302840Y23758849D01*
X1177460Y23554249D01*
X1175567Y23549679D01*
X1175566Y23549677D01*
X1087525Y23337126D01*
X1085631Y23332553D01*
X1084476Y23327741D01*
X1030768Y23104035D01*
X1030767Y23104029D01*
X1029613Y23099222D01*
X1011274Y22866200D01*
X1010786Y22860000D01*
X513729Y22860000D01*
X512003Y22872053D01*
X511001Y22898155D01*
X525340Y23116922D01*
X527491Y23133262D01*
X576111Y23377693D01*
X580375Y23393606D01*
X660485Y23629602D01*
X666791Y23644826D01*
X777016Y23868342D01*
X785257Y23882616D01*
X923713Y24089829D01*
X933746Y24102905D01*
X1098068Y24290278D01*
X1109722Y24301932D01*
X1297095Y24466254D01*
X1310171Y24476287D01*
X1517384Y24614743D01*
X1531658Y24622984D01*
X1755174Y24733209D01*
X1770400Y24739516D01*
X2006394Y24819625D01*
X2022304Y24823888D01*
X2144523Y24848199D01*
X2266738Y24872509D01*
X2283078Y24874660D01*
X2431866Y24884413D01*
X2498237Y24888763D01*
X2521350Y24887733D01*
X2524854Y24887690D01*
X2533724Y24886309D01*
X2542626Y24887473D01*
X2542628Y24887473D01*
X2559449Y24889673D01*
X2565286Y24890436D01*
X2581621Y24891500D01*
X6557566Y24891500D01*
X6625687Y24871498D01*
G37*
%TD.AperFunction*%
%TD*%
%TA.AperFunction,Conductor*%
%TO.N,/TDI*%
G36*
X1647490Y14299754D02*
G01*
X1691024Y14280163D01*
X1691211Y14280079D01*
X1717296Y14270331D01*
X1739232Y14262134D01*
X1739238Y14262132D01*
X1739436Y14262058D01*
X1786463Y14248352D01*
X1833804Y14238376D01*
X1882968Y14231541D01*
X1935465Y14227264D01*
X1945748Y14226850D01*
X1992749Y14224959D01*
X1992768Y14224959D01*
X1992806Y14224957D01*
X1992863Y14224956D01*
X1992870Y14224956D01*
X2006823Y14224754D01*
X2056502Y14224035D01*
X2128063Y14223911D01*
X2197287Y14223987D01*
X2205564Y14220569D01*
X2209000Y14212287D01*
X2209000Y13727713D01*
X2205573Y13719440D01*
X2197287Y13716013D01*
X2128063Y13716090D01*
X2056502Y13715966D01*
X2006823Y13715247D01*
X1992870Y13715045D01*
X1992863Y13715045D01*
X1992806Y13715044D01*
X1992768Y13715042D01*
X1992749Y13715042D01*
X1945748Y13713151D01*
X1935465Y13712737D01*
X1882968Y13708460D01*
X1833804Y13701625D01*
X1786463Y13691649D01*
X1739436Y13677943D01*
X1739238Y13677869D01*
X1739232Y13677867D01*
X1717296Y13669670D01*
X1691211Y13659922D01*
X1668839Y13649853D01*
X1647491Y13640246D01*
X1638540Y13639975D01*
X1634579Y13642482D01*
X1302769Y13961567D01*
X1299181Y13969771D01*
X1302769Y13978433D01*
X1634579Y14297518D01*
X1642918Y14300783D01*
X1647490Y14299754D01*
G37*
%TD.AperFunction*%
%TD*%
%TA.AperFunction,Conductor*%
%TO.N,/SWO{slash}TDO*%
G36*
X1647490Y13029754D02*
G01*
X1691024Y13010163D01*
X1691211Y13010079D01*
X1717296Y13000331D01*
X1739232Y12992134D01*
X1739238Y12992132D01*
X1739436Y12992058D01*
X1786463Y12978352D01*
X1833804Y12968376D01*
X1882968Y12961541D01*
X1935465Y12957264D01*
X1945748Y12956850D01*
X1992749Y12954959D01*
X1992768Y12954959D01*
X1992806Y12954957D01*
X1992863Y12954956D01*
X1992870Y12954956D01*
X2006823Y12954754D01*
X2056502Y12954035D01*
X2128063Y12953911D01*
X2197287Y12953987D01*
X2205564Y12950569D01*
X2209000Y12942287D01*
X2209000Y12457713D01*
X2205573Y12449440D01*
X2197287Y12446013D01*
X2128063Y12446090D01*
X2056502Y12445966D01*
X2006823Y12445247D01*
X1992870Y12445045D01*
X1992863Y12445045D01*
X1992806Y12445044D01*
X1992768Y12445042D01*
X1992749Y12445042D01*
X1945748Y12443151D01*
X1935465Y12442737D01*
X1882968Y12438460D01*
X1833804Y12431625D01*
X1786463Y12421649D01*
X1739436Y12407943D01*
X1739238Y12407869D01*
X1739232Y12407867D01*
X1717296Y12399670D01*
X1691211Y12389922D01*
X1668839Y12379853D01*
X1647491Y12370246D01*
X1638540Y12369975D01*
X1634579Y12372482D01*
X1302769Y12691567D01*
X1299181Y12699771D01*
X1302769Y12708433D01*
X1634579Y13027518D01*
X1642918Y13030783D01*
X1647490Y13029754D01*
G37*
%TD.AperFunction*%
%TD*%
%TA.AperFunction,Conductor*%
%TO.N,/VTref*%
G36*
X8623545Y1826753D02*
G01*
X8923490Y1538311D01*
X9193731Y1278433D01*
X9197319Y1270229D01*
X9193731Y1261567D01*
X8623545Y713247D01*
X8615206Y709982D01*
X8610167Y711233D01*
X8511459Y761009D01*
X8511207Y761140D01*
X8418840Y810563D01*
X8418787Y810591D01*
X8335610Y855646D01*
X8335542Y855683D01*
X8257215Y895975D01*
X8257094Y896030D01*
X8219249Y913114D01*
X8179421Y931093D01*
X8097776Y960663D01*
X8007896Y984313D01*
X7977168Y989516D01*
X7905630Y1001629D01*
X7905619Y1001630D01*
X7905397Y1001668D01*
X7905154Y1001690D01*
X7905152Y1001690D01*
X7786082Y1012338D01*
X7785892Y1012355D01*
X7785715Y1012360D01*
X7785708Y1012360D01*
X7706078Y1014420D01*
X7656397Y1015705D01*
X7648216Y1019345D01*
X7645000Y1027401D01*
X7645000Y1512599D01*
X7648427Y1520872D01*
X7656397Y1524295D01*
X7685317Y1525043D01*
X7785708Y1527641D01*
X7785715Y1527641D01*
X7785892Y1527646D01*
X7796683Y1528611D01*
X7905152Y1538311D01*
X7905154Y1538311D01*
X7905397Y1538333D01*
X7905619Y1538371D01*
X7905630Y1538372D01*
X7977168Y1550485D01*
X8007896Y1555688D01*
X8097776Y1579338D01*
X8179421Y1608908D01*
X8219249Y1626887D01*
X8257094Y1643971D01*
X8257215Y1644026D01*
X8335542Y1684318D01*
X8418787Y1729410D01*
X8418840Y1729438D01*
X8511207Y1778861D01*
X8511459Y1778992D01*
X8610167Y1828767D01*
X8619097Y1829432D01*
X8623545Y1826753D01*
G37*
%TD.AperFunction*%
%TD*%
%TA.AperFunction,Conductor*%
%TO.N,/nRESET*%
G36*
X1644713Y15571053D02*
G01*
X1684249Y15553078D01*
X1684267Y15553070D01*
X1684358Y15553029D01*
X1729211Y15534991D01*
X1729379Y15534936D01*
X1729383Y15534934D01*
X1772979Y15520526D01*
X1772987Y15520524D01*
X1773204Y15520452D01*
X1773436Y15520395D01*
X1773437Y15520395D01*
X1784222Y15517759D01*
X1817561Y15509610D01*
X1817815Y15509572D01*
X1817823Y15509570D01*
X1839547Y15506285D01*
X1863508Y15502661D01*
X1863781Y15502645D01*
X1912011Y15499817D01*
X1912015Y15499817D01*
X1912270Y15499802D01*
X1925039Y15500147D01*
X1964858Y15501224D01*
X1964862Y15501224D01*
X1965074Y15501230D01*
X1965289Y15501252D01*
X1965291Y15501252D01*
X1987974Y15503561D01*
X2023144Y15507141D01*
X2023322Y15507170D01*
X2023328Y15507171D01*
X2045354Y15510785D01*
X2087705Y15517733D01*
X2087816Y15517757D01*
X2087828Y15517759D01*
X2122975Y15525281D01*
X2148770Y15530801D01*
X2157576Y15529181D01*
X2162607Y15522034D01*
X2229199Y15238414D01*
X2273372Y15050275D01*
X2271927Y15041438D01*
X2264424Y15036159D01*
X2187478Y15019738D01*
X2187043Y15019654D01*
X2108591Y15006145D01*
X2108232Y15006089D01*
X2038042Y14996410D01*
X2037829Y14996382D01*
X1998949Y14991876D01*
X1974244Y14989013D01*
X1974202Y14989008D01*
X1915610Y14982432D01*
X1915601Y14982431D01*
X1915585Y14982429D01*
X1860648Y14975159D01*
X1860630Y14975156D01*
X1860538Y14975144D01*
X1807371Y14965619D01*
X1777593Y14958138D01*
X1754741Y14952398D01*
X1754736Y14952397D01*
X1754491Y14952335D01*
X1754264Y14952257D01*
X1754253Y14952254D01*
X1726645Y14942798D01*
X1700282Y14933769D01*
X1700068Y14933674D01*
X1700045Y14933665D01*
X1650250Y14911557D01*
X1641298Y14911332D01*
X1637465Y14913748D01*
X1616285Y14933769D01*
X1302847Y15230057D01*
X1299190Y15238229D01*
X1302703Y15246921D01*
X1631689Y15568765D01*
X1639999Y15572101D01*
X1644713Y15571053D01*
G37*
%TD.AperFunction*%
%TD*%
%TA.AperFunction,Conductor*%
%TO.N,/SWDIO{slash}TMS*%
G36*
X8623545Y9446753D02*
G01*
X8923490Y9158311D01*
X9193731Y8898433D01*
X9197319Y8890229D01*
X9193731Y8881567D01*
X8623545Y8333247D01*
X8615206Y8329982D01*
X8610167Y8331233D01*
X8511459Y8381009D01*
X8511207Y8381140D01*
X8418840Y8430563D01*
X8418787Y8430591D01*
X8335610Y8475646D01*
X8335542Y8475683D01*
X8257215Y8515975D01*
X8257094Y8516030D01*
X8219249Y8533114D01*
X8179421Y8551093D01*
X8097776Y8580663D01*
X8007896Y8604313D01*
X7977168Y8609516D01*
X7905630Y8621629D01*
X7905619Y8621630D01*
X7905397Y8621668D01*
X7905154Y8621690D01*
X7905152Y8621690D01*
X7786082Y8632338D01*
X7785892Y8632355D01*
X7785715Y8632360D01*
X7785708Y8632360D01*
X7706078Y8634420D01*
X7656397Y8635705D01*
X7648216Y8639345D01*
X7645000Y8647401D01*
X7645000Y9132599D01*
X7648427Y9140872D01*
X7656397Y9144295D01*
X7685317Y9145043D01*
X7785708Y9147641D01*
X7785715Y9147641D01*
X7785892Y9147646D01*
X7796683Y9148611D01*
X7905152Y9158311D01*
X7905154Y9158311D01*
X7905397Y9158333D01*
X7905619Y9158371D01*
X7905630Y9158372D01*
X7977168Y9170485D01*
X8007896Y9175688D01*
X8097776Y9199338D01*
X8179421Y9228908D01*
X8219249Y9246887D01*
X8257094Y9263971D01*
X8257215Y9264026D01*
X8335542Y9304318D01*
X8418787Y9349410D01*
X8418840Y9349438D01*
X8511207Y9398861D01*
X8511459Y9398992D01*
X8610167Y9448767D01*
X8619097Y9449432D01*
X8623545Y9446753D01*
G37*
%TD.AperFunction*%
%TD*%
%TA.AperFunction,Conductor*%
%TO.N,/VTref*%
G36*
X5387433Y10336231D02*
G01*
X5706518Y10004421D01*
X5709783Y9996082D01*
X5708754Y9991509D01*
X5689078Y9947789D01*
X5671057Y9899564D01*
X5657351Y9852537D01*
X5647375Y9805196D01*
X5640540Y9756032D01*
X5636263Y9703535D01*
X5633956Y9646194D01*
X5633034Y9582498D01*
X5633034Y9582439D01*
X5632910Y9510937D01*
X5632910Y9510924D01*
X5632987Y9441713D01*
X5629569Y9433436D01*
X5621287Y9430000D01*
X5136713Y9430000D01*
X5128440Y9433427D01*
X5125013Y9441713D01*
X5125089Y9510937D01*
X5125089Y9510957D01*
X5124965Y9582498D01*
X5124965Y9582518D01*
X5124964Y9582588D01*
X5124044Y9646130D01*
X5124044Y9646137D01*
X5124043Y9646194D01*
X5121736Y9703535D01*
X5117459Y9756032D01*
X5110624Y9805196D01*
X5100648Y9852537D01*
X5086942Y9899564D01*
X5068921Y9947789D01*
X5049246Y9991509D01*
X5049246Y9991510D01*
X5048975Y10000460D01*
X5051482Y10004421D01*
X5370567Y10336231D01*
X5378771Y10339819D01*
X5387433Y10336231D01*
G37*
%TD.AperFunction*%
%TD*%
%TA.AperFunction,Conductor*%
%TO.N,/nRESET*%
G36*
X8595495Y19592488D02*
G01*
X9192907Y19073893D01*
X9196908Y19065882D01*
X9193766Y19057050D01*
X8652271Y18480418D01*
X8644110Y18476733D01*
X8638980Y18477741D01*
X8542477Y18520778D01*
X8542235Y18520889D01*
X8450421Y18564955D01*
X8366994Y18605358D01*
X8366978Y18605366D01*
X8366919Y18605394D01*
X8288003Y18640814D01*
X8209827Y18669884D01*
X8209558Y18669955D01*
X8209551Y18669957D01*
X8128882Y18691181D01*
X8128875Y18691182D01*
X8128542Y18691270D01*
X8128201Y18691318D01*
X8128195Y18691319D01*
X8091545Y18696456D01*
X8040300Y18703639D01*
X8011160Y18704234D01*
X7941561Y18705654D01*
X7941556Y18705654D01*
X7941255Y18705660D01*
X7940951Y18705634D01*
X7940946Y18705634D01*
X7827804Y18696021D01*
X7827802Y18696021D01*
X7827558Y18696000D01*
X7706499Y18675235D01*
X7697767Y18677214D01*
X7693067Y18684388D01*
X7594460Y19159454D01*
X7596134Y19168251D01*
X7603350Y19173247D01*
X7738308Y19203587D01*
X7738328Y19203592D01*
X7738417Y19203612D01*
X7797381Y19219398D01*
X7861672Y19236610D01*
X7861688Y19236615D01*
X7861801Y19236645D01*
X7966983Y19270589D01*
X7967128Y19270645D01*
X7967144Y19270651D01*
X8058519Y19306147D01*
X8058524Y19306149D01*
X8058673Y19306207D01*
X8058812Y19306271D01*
X8058829Y19306278D01*
X8141441Y19344199D01*
X8141450Y19344203D01*
X8141582Y19344264D01*
X8141720Y19344336D01*
X8220304Y19385464D01*
X8220320Y19385472D01*
X8220420Y19385525D01*
X8220490Y19385565D01*
X8220518Y19385580D01*
X8299853Y19430728D01*
X8299897Y19430753D01*
X8384724Y19480715D01*
X8479512Y19536115D01*
X8479677Y19536210D01*
X8579668Y19592488D01*
X8582087Y19593849D01*
X8590977Y19594920D01*
X8595495Y19592488D01*
G37*
%TD.AperFunction*%
%TD*%
%TA.AperFunction,Conductor*%
%TO.N,/SWO{slash}TDO*%
G36*
X8453270Y16946118D02*
G01*
X9173558Y16619169D01*
X9179675Y16612629D01*
X9179179Y16603266D01*
X8824265Y15896180D01*
X8817491Y15890324D01*
X8812463Y15889807D01*
X8810519Y15890032D01*
X8795216Y15891803D01*
X8725721Y15899845D01*
X8725684Y15899849D01*
X8639512Y15909149D01*
X8639497Y15909150D01*
X8639352Y15909166D01*
X8639215Y15909176D01*
X8639190Y15909178D01*
X8576907Y15913609D01*
X8559721Y15914832D01*
X8530719Y15914837D01*
X8485380Y15914845D01*
X8485062Y15914845D01*
X8445692Y15910638D01*
X8414008Y15907252D01*
X8414003Y15907251D01*
X8413609Y15907209D01*
X8372041Y15896949D01*
X8344014Y15890032D01*
X8344010Y15890031D01*
X8343594Y15889928D01*
X8273253Y15861002D01*
X8272905Y15860797D01*
X8272896Y15860793D01*
X8225512Y15832948D01*
X8200819Y15818437D01*
X8124525Y15760234D01*
X8050866Y15692042D01*
X8042469Y15688938D01*
X8034647Y15692356D01*
X7691531Y16035473D01*
X7688104Y16043746D01*
X7691392Y16051878D01*
X7797036Y16161165D01*
X7797045Y16161174D01*
X7797114Y16161246D01*
X7890183Y16264975D01*
X7967223Y16357757D01*
X8032853Y16442554D01*
X8091691Y16522328D01*
X8148334Y16600010D01*
X8148437Y16600148D01*
X8207346Y16678494D01*
X8207571Y16678785D01*
X8273502Y16760958D01*
X8273809Y16761325D01*
X8351367Y16850284D01*
X8351705Y16850654D01*
X8439953Y16943523D01*
X8448136Y16947160D01*
X8453270Y16946118D01*
G37*
%TD.AperFunction*%
%TD*%
%TA.AperFunction,Conductor*%
%TO.N,/TDI*%
G36*
X8623545Y6906753D02*
G01*
X8923490Y6618311D01*
X9193731Y6358433D01*
X9197319Y6350229D01*
X9193731Y6341567D01*
X8623545Y5793247D01*
X8615206Y5789982D01*
X8610167Y5791233D01*
X8511459Y5841009D01*
X8511207Y5841140D01*
X8418840Y5890563D01*
X8418787Y5890591D01*
X8335610Y5935646D01*
X8335542Y5935683D01*
X8257215Y5975975D01*
X8257094Y5976030D01*
X8219249Y5993114D01*
X8179421Y6011093D01*
X8097776Y6040663D01*
X8007896Y6064313D01*
X7977168Y6069516D01*
X7905630Y6081629D01*
X7905619Y6081630D01*
X7905397Y6081668D01*
X7905154Y6081690D01*
X7905152Y6081690D01*
X7786082Y6092338D01*
X7785892Y6092355D01*
X7785715Y6092360D01*
X7785708Y6092360D01*
X7706078Y6094420D01*
X7656397Y6095705D01*
X7648216Y6099345D01*
X7645000Y6107401D01*
X7645000Y6592599D01*
X7648427Y6600872D01*
X7656397Y6604295D01*
X7685317Y6605043D01*
X7785708Y6607641D01*
X7785715Y6607641D01*
X7785892Y6607646D01*
X7796683Y6608611D01*
X7905152Y6618311D01*
X7905154Y6618311D01*
X7905397Y6618333D01*
X7905619Y6618371D01*
X7905630Y6618372D01*
X7977168Y6630485D01*
X8007896Y6635688D01*
X8097776Y6659338D01*
X8179421Y6688908D01*
X8219249Y6706887D01*
X8257094Y6723971D01*
X8257215Y6724026D01*
X8335542Y6764318D01*
X8418787Y6809410D01*
X8418840Y6809438D01*
X8511207Y6858861D01*
X8511459Y6858992D01*
X8610167Y6908767D01*
X8619097Y6909432D01*
X8623545Y6906753D01*
G37*
%TD.AperFunction*%
%TD*%
M02*
