M48
; DRILL file {KiCad (6.0.5)} date Fri Jun 17 13:24:57 2022
; FORMAT={-:-/ absolute / inch / decimal}
; #@! TF.CreationDate,2022-06-17T13:24:57+08:00
; #@! TF.GenerationSoftware,Kicad,Pcbnew,(6.0.5)
; #@! TF.FileFunction,Plated,1,2,PTH
FMAT,2
INCH
; #@! TA.AperFunction,Plated,PTH,ViaDrill
T1C0.0120
%
G90
G05
T1
X0.035Y0.85
X0.035Y0.75
X0.035Y0.65
X0.04Y0.34
X0.04Y0.26
X0.04Y0.17
X0.11Y0.68
X0.115Y0.245
X0.135Y0.55
X0.135Y0.5
X0.135Y0.45
X0.135Y0.4
X0.15Y0.035
X0.16Y0.95
X0.16Y0.85
X0.165Y0.16
X0.19Y0.75
X0.21Y0.475
X0.21Y0.035
X0.245Y0.95
X0.245Y0.85
X0.245Y0.65
X0.25Y0.35
X0.25Y0.3
X0.25Y0.25
X0.25Y0.15
X0.285Y0.6
X0.285Y0.4
X0.35Y0.9
X0.35Y0.8
X0.35Y0.7
X0.35Y0.6
X0.35Y0.5
X0.35Y0.4
X0.35Y0.3
X0.35Y0.2
X0.35Y0.1
T0
M30
