%TF.GenerationSoftware,KiCad,Pcbnew,(6.0.5)*%
%TF.CreationDate,2022-06-17T13:24:51+08:00*%
%TF.ProjectId,JLINK_MINI_ADAPTER,4a4c494e-4b5f-44d4-994e-495f41444150,rev?*%
%TF.SameCoordinates,PX853a720PY66f2fb0*%
%TF.FileFunction,Soldermask,Top*%
%TF.FilePolarity,Negative*%
%FSLAX46Y46*%
G04 Gerber Fmt 4.6, Leading zero omitted, Abs format (unit mm)*
G04 Created by KiCad (PCBNEW (6.0.5)) date 2022-06-17 13:24:51*
%MOMM*%
%LPD*%
G01*
G04 APERTURE LIST*
G04 Aperture macros list*
%AMRoundRect*
0 Rectangle with rounded corners*
0 $1 Rounding radius*
0 $2 $3 $4 $5 $6 $7 $8 $9 X,Y pos of 4 corners*
0 Add a 4 corners polygon primitive as box body*
4,1,4,$2,$3,$4,$5,$6,$7,$8,$9,$2,$3,0*
0 Add four circle primitives for the rounded corners*
1,1,$1+$1,$2,$3*
1,1,$1+$1,$4,$5*
1,1,$1+$1,$6,$7*
1,1,$1+$1,$8,$9*
0 Add four rect primitives between the rounded corners*
20,1,$1+$1,$2,$3,$4,$5,0*
20,1,$1+$1,$4,$5,$6,$7,0*
20,1,$1+$1,$6,$7,$8,$9,0*
20,1,$1+$1,$8,$9,$2,$3,0*%
G04 Aperture macros list end*
%ADD10C,0.150000*%
%ADD11C,0.100000*%
%ADD12RoundRect,0.312500X-1.437500X-0.312500X1.437500X-0.312500X1.437500X0.312500X-1.437500X0.312500X0*%
G04 APERTURE END LIST*
D10*
X2032000Y21209000D02*
X5080000Y21209000D01*
X1651000Y16129000D02*
G75*
G03*
X2032000Y15748000I381000J0D01*
G01*
X5461000Y20828000D02*
G75*
G03*
X5080000Y21209000I-381000J0D01*
G01*
X5461000Y20828000D02*
X5461000Y16129000D01*
X1651000Y16129000D02*
X1651000Y20828000D01*
X5080000Y15748000D02*
X2032000Y15748000D01*
X5080000Y15748000D02*
G75*
G03*
X5461000Y16129000I0J381000D01*
G01*
X2032000Y21209000D02*
G75*
G03*
X1651000Y20828000I0J-381000D01*
G01*
D11*
X2389047Y20785096D02*
X2389047Y20213667D01*
X2350952Y20099381D01*
X2274761Y20023191D01*
X2160476Y19985096D01*
X2084285Y19985096D01*
X3150952Y19985096D02*
X2770000Y19985096D01*
X2770000Y20785096D01*
X3417619Y19985096D02*
X3417619Y20785096D01*
X3798571Y19985096D02*
X3798571Y20785096D01*
X4255714Y19985096D01*
X4255714Y20785096D01*
X4636666Y19985096D02*
X4636666Y20785096D01*
X5093809Y19985096D02*
X4750952Y20442239D01*
X5093809Y20785096D02*
X4636666Y20327953D01*
X2160476Y18697096D02*
X2160476Y19497096D01*
X2427142Y18925667D01*
X2693809Y19497096D01*
X2693809Y18697096D01*
X3074761Y18697096D02*
X3074761Y19497096D01*
X3455714Y18697096D02*
X3455714Y19497096D01*
X3912857Y18697096D01*
X3912857Y19497096D01*
X4293809Y18697096D02*
X4293809Y19497096D01*
X2046190Y18209096D02*
X2503333Y18209096D01*
X2274761Y17409096D02*
X2274761Y18209096D01*
X2922380Y18209096D02*
X3074761Y18209096D01*
X3150952Y18171000D01*
X3227142Y18094810D01*
X3265238Y17942429D01*
X3265238Y17675762D01*
X3227142Y17523381D01*
X3150952Y17447191D01*
X3074761Y17409096D01*
X2922380Y17409096D01*
X2846190Y17447191D01*
X2770000Y17523381D01*
X2731904Y17675762D01*
X2731904Y17942429D01*
X2770000Y18094810D01*
X2846190Y18171000D01*
X2922380Y18209096D01*
X2389047Y16921096D02*
X2389047Y16349667D01*
X2350952Y16235381D01*
X2274761Y16159191D01*
X2160476Y16121096D01*
X2084285Y16121096D01*
X3150952Y16121096D02*
X2770000Y16121096D01*
X2770000Y16921096D01*
X3417619Y16121096D02*
X3417619Y16921096D01*
X3798571Y16121096D02*
X3798571Y16921096D01*
X4255714Y16121096D01*
X4255714Y16921096D01*
X4636666Y16121096D02*
X4636666Y16921096D01*
X5093809Y16121096D02*
X4750952Y16578239D01*
X5093809Y16921096D02*
X4636666Y16463953D01*
D12*
%TO.C,J2*%
X8890000Y1270000D03*
X8890000Y3810000D03*
X8890000Y6350000D03*
X8890000Y8890000D03*
X8890000Y11430000D03*
X8890000Y13970000D03*
X8890000Y16510000D03*
X8890000Y19050000D03*
X8890000Y21590000D03*
X8890000Y24130000D03*
%TD*%
M02*
